<svg width="90" height="30" viewBox="0 0 90 30" fill="none" xmlns="http://www.w3.org/2000/svg">
<path d="M21.4755 30H0V0H21.4755V30ZM17.0596 10.8377H15.3759L4.54288 23.0262C3.55806 24.1571 2.66855 25.0052 1.23897 25.0995H1.2072L1.08013 25.6021H7.11613L7.2432 25.0995H6.67137C5.81362 25.0995 5.21002 24.8482 5.01941 24.4712C4.98764 24.377 4.95587 24.3141 4.95587 24.2199C4.95587 23.9372 5.11472 23.623 5.4324 23.2775C5.4324 23.2775 8.89516 19.4136 8.92693 19.3822C8.9587 19.3822 14.8041 19.3822 14.8994 19.3822C14.8994 19.445 14.8994 23.466 14.8994 23.466C14.8994 24.6911 14.1687 25.1309 12.1673 25.1309H12.1355L12.0085 25.6335H19.2199L19.347 25.1309H19.2834C17.4409 25.1309 17.0914 24.6597 17.0914 23.8429V10.8377H17.0596ZM12.1673 15.8325C12.1673 15.8325 14.7088 12.911 14.8359 12.7853C14.8359 12.9738 14.8359 18.3141 14.8359 18.377C14.7723 18.377 10.1341 18.377 9.97528 18.377C10.0706 18.2513 12.1673 15.8325 12.1673 15.8325Z" fill="#2F2F2F"/>
<path d="M44.317 30H22.8416V0H44.317V30ZM25.5419 18.7225C25.5419 20.5445 26.2408 22.2094 27.5433 23.4974C29.1952 25.1309 31.6732 26.0419 34.5006 26.0419C36.0572 26.0419 37.1373 25.822 37.9951 25.6335C38.8211 25.4764 39.4882 25.3194 40.2507 25.4136H40.2824V25.3822C40.886 24.5026 41.5849 23.089 41.9344 22.0524L41.9661 21.9895H41.3943V22.0209C39.9965 24.2513 37.8998 25.3822 35.1995 25.3822C33.2616 25.3822 31.4826 24.6283 30.1165 23.3089C28.7822 21.9895 28.0516 20.199 28.0516 18.2513C28.0516 14.3246 30.8154 11.7173 34.9453 11.7173C37.6456 11.7173 39.8694 13.0681 40.7272 15.2042V15.2356H41.2672L41.0449 11.8429H40.6001V11.8743C40.5683 11.9058 40.473 12 40.1871 12C39.933 12 39.6153 11.9058 39.1705 11.7801C38.281 11.4974 36.9467 11.089 34.7865 11.089C29.4176 11.089 25.5419 14.2932 25.5419 18.7225Z" fill="#2F2F2F"/>
<path d="M67.0309 30H45.5555V0H67.0309V30ZM61.3762 11.3717H49.0818V11.8743H49.6854C51.4009 11.8743 51.6868 12.4398 51.6868 13.6649V23.2775C51.6868 24.6283 51.3373 25.0995 49.3359 25.0995H48.5735V25.6021H62.2021L62.6151 22.1152H62.0751V22.1466C61.4397 24.0628 60.9314 24.6911 59.1524 24.6911H55.2131C54.2918 24.6911 53.8788 24.5026 53.8788 23.466C53.8788 23.466 53.8788 18.7225 53.8788 18.6597C53.9423 18.6597 58.1675 18.6597 58.1675 18.6597C59.1841 18.6597 59.6607 18.8168 59.8513 20.4188V20.4503H60.4231V16.0524H59.8513V16.0838C59.7242 17.3089 59.343 17.7487 58.4217 17.7487C58.4217 17.7487 53.9741 17.7487 53.8788 17.7487C53.8788 17.6859 53.8788 12.2827 53.8788 12.2199C53.9423 12.2199 59.2159 12.2199 59.2159 12.2199C60.1054 12.2199 60.7408 12.5969 61.0585 14.5445V14.5759H61.5985L61.3762 11.3403V11.3717Z" fill="#2F2F2F"/>
<path d="M90 8.13613V30H68.5245V0H81.6449V8.13613H90ZM76.5937 11.1518C74.9418 11.1518 74.4335 11.1832 73.3851 11.2147L72.2732 11.2775C71.4155 11.3089 70.5577 11.3717 70.1447 11.3717H70.113V11.8743H70.7166C72.1779 11.8743 72.5909 12.2827 72.5909 13.6649V23.2461C72.5909 24.6911 72.1461 25.0995 70.5895 25.0995H70.113V25.6021H77.4197V25.0995H76.7843C75.2594 25.0995 74.7829 24.6911 74.7829 23.4346C74.7829 23.4346 74.7829 19.6963 74.7829 19.6335C74.8147 19.6335 74.8782 19.6335 74.8782 19.6335C75.2277 19.6649 75.5454 19.6649 76.0536 19.6649L77.4197 19.6335H77.7691C78.468 20.0419 79.3893 20.7644 80.3742 21.644L82.0579 23.1518C84.3134 25.1623 85.5206 26.0419 89.9682 25.8534H90V25.3822H89.9682C88.1574 25.288 86.6325 24.5654 84.9488 23.089L82.9156 21.2984C81.8037 20.3246 81.0095 19.6649 80.0565 18.9738C82.1214 18.4084 83.3921 16.9948 83.3921 15.267C83.3921 14.3246 83.0427 13.5079 82.4073 12.8796C81.359 11.7173 79.3258 11.1518 76.5937 11.1518ZM76.0219 11.7487C79.3576 11.7487 80.9142 12.911 80.9142 15.3927C80.9142 16.4921 80.5965 17.3403 79.9929 17.9686C79.2305 18.7225 78.0233 19.0995 76.3396 19.0995H75.9901C75.6089 19.0995 75.2912 19.0995 74.8782 19.0681C74.8782 19.0052 74.8782 11.9058 74.8782 11.8115C75.2594 11.7487 75.5771 11.7487 76.0219 11.7487Z" fill="#2F2F2F"/>
<path d="M82.8521 0V7.06806H90L82.8521 0Z" fill="#2F2F2F"/>
</svg>
