<svg width="98" height="32" viewBox="0 0 98 32" fill="none" xmlns="http://www.w3.org/2000/svg">
<path d="M23.3844 32H0V0H23.3844V32ZM18.5761 11.5602H16.7427L4.9467 24.5613C3.87434 25.7675 2.90575 26.6723 1.3491 26.7728H1.31451L1.17614 27.3089H7.74867L7.88704 26.7728H7.26438C6.33039 26.7728 5.67313 26.5047 5.46558 26.1026C5.43099 26.0021 5.3964 25.9351 5.3964 25.8346C5.3964 25.533 5.56936 25.1979 5.91528 24.8293C5.91528 24.8293 9.68584 20.7079 9.72043 20.6743C9.75502 20.6743 16.12 20.6743 16.2238 20.6743C16.2238 20.7414 16.2238 25.0304 16.2238 25.0304C16.2238 26.3372 15.4282 26.8063 13.2488 26.8063H13.2143L13.0759 27.3424H20.9283L21.0667 26.8063H20.9975C18.9912 26.8063 18.6106 26.3037 18.6106 25.4325V11.5602H18.5761ZM13.2488 16.888C13.2488 16.888 16.0162 13.7717 16.1546 13.6377C16.1546 13.8387 16.1546 19.5351 16.1546 19.6021C16.0854 19.6021 11.0349 19.6021 10.862 19.6021C10.9658 19.4681 13.2488 16.888 13.2488 16.888Z" fill="white"/>
<path d="M48.2563 32H24.8719V0H48.2563V32ZM27.8122 19.9707C27.8122 21.9141 28.5733 23.6901 29.9915 25.0639C31.7903 26.8063 34.4885 27.778 37.5673 27.778C39.2623 27.778 40.4384 27.5435 41.3724 27.3424C42.2718 27.1749 42.9982 27.0073 43.8285 27.1079H43.8631V27.0743C44.5203 26.1361 45.2813 24.6283 45.6619 23.5225L45.6964 23.4555H45.0738V23.489C43.5517 25.8681 41.2686 27.0743 38.3283 27.0743C36.2182 27.0743 34.281 26.2702 32.7935 24.8628C31.3406 23.4555 30.545 21.5455 30.545 19.4681C30.545 15.2796 33.5546 12.4984 38.0515 12.4984C40.9919 12.4984 43.4134 13.9393 44.3473 16.2178V16.2513H44.9354L44.6933 12.6325H44.209V12.666C44.1744 12.6995 44.0706 12.8 43.7593 12.8C43.4825 12.8 43.1366 12.6995 42.6523 12.5654C41.6837 12.2639 40.2309 11.8283 37.8786 11.8283C32.0325 11.8283 27.8122 15.2461 27.8122 19.9707Z" fill="white"/>
<path d="M72.9892 32H49.6049V0H72.9892V32ZM66.8318 12.1298H53.4446V12.666H54.1019C55.9698 12.666 56.2812 13.2691 56.2812 14.5759V24.8293C56.2812 26.2702 55.9007 26.7728 53.7213 26.7728H52.8911V27.3089H67.7312L68.1809 23.5895H67.5928V23.623C66.901 25.667 66.3475 26.3372 64.4104 26.3372H60.1209C59.1177 26.3372 58.668 26.1361 58.668 25.0304C58.668 25.0304 58.668 19.9707 58.668 19.9037C58.7372 19.9037 63.338 19.9037 63.338 19.9037C64.4449 19.9037 64.9638 20.0712 65.1714 21.7801V21.8136H65.7941V17.1225H65.1714V17.156C65.033 18.4628 64.6179 18.9319 63.6147 18.9319C63.6147 18.9319 58.7718 18.9319 58.668 18.9319C58.668 18.8649 58.668 13.1016 58.668 13.0346C58.7372 13.0346 64.4795 13.0346 64.4795 13.0346C65.4481 13.0346 66.14 13.4366 66.4859 15.5141V15.5476H67.074L66.8318 12.0963V12.1298Z" fill="white"/>
<path d="M98 8.67853V32H74.6156V0H88.9022V8.67853H98ZM83.402 11.8953C81.6032 11.8953 81.0498 11.9288 79.9082 11.9623L78.6975 12.0293C77.7635 12.0628 76.8295 12.1298 76.3798 12.1298H76.3452V12.666H77.0025C78.5937 12.666 79.0434 13.1016 79.0434 14.5759V24.7958C79.0434 26.3372 78.5591 26.7728 76.8641 26.7728H76.3452V27.3089H84.3014V26.7728H83.6096C81.9492 26.7728 81.4303 26.3372 81.4303 24.9969C81.4303 24.9969 81.4303 21.0094 81.4303 20.9424C81.4649 20.9424 81.5341 20.9424 81.5341 20.9424C81.9146 20.9759 82.2605 20.9759 82.814 20.9759L84.3014 20.9424H84.6819C85.443 21.378 86.4462 22.1487 87.5185 23.0869L89.3519 24.6953C91.808 26.8398 93.1225 27.778 97.9654 27.577H98V27.0743H97.9654C95.9936 26.9738 94.3332 26.2031 92.4998 24.6283L90.2859 22.7183C89.0752 21.6796 88.2104 20.9759 87.1726 20.2387C89.4211 19.6356 90.8048 18.1277 90.8048 16.2848C90.8048 15.2796 90.4243 14.4084 89.7324 13.7382C88.5909 12.4984 86.377 11.8953 83.402 11.8953ZM82.7794 12.5319C86.4116 12.5319 88.1066 13.7717 88.1066 16.4188C88.1066 17.5916 87.7607 18.4963 87.1034 19.1665C86.2732 19.9707 84.9587 20.3728 83.1253 20.3728H82.7448C82.3297 20.3728 81.9838 20.3728 81.5341 20.3393C81.5341 20.2723 81.5341 12.6995 81.5341 12.599C81.9492 12.5319 82.2951 12.5319 82.7794 12.5319Z" fill="white"/>
<path d="M90.2167 0V7.53927H98L90.2167 0Z" fill="white"/>
</svg>
