<svg width="132" height="132" viewBox="0 0 132 132" fill="none" xmlns="http://www.w3.org/2000/svg">
<path d="M112.34 129.571H19.2338C9.72151 129.571 2.00143 121.851 2.00143 112.339V19.2323C2.00143 9.72008 9.72151 2 19.2338 2H112.34C121.852 2 129.572 9.72008 129.572 19.2323V112.339C129.572 121.851 121.852 129.571 112.34 129.571Z" stroke="white" stroke-width="4" stroke-miterlimit="10" stroke-linecap="round" stroke-linejoin="round"/>
<path d="M65.7944 2V129.571" stroke="white" stroke-width="4" stroke-miterlimit="10" stroke-linecap="round" stroke-linejoin="round"/>
<path d="M129.571 65.7944H2" stroke="white" stroke-width="4" stroke-miterlimit="10" stroke-linecap="round" stroke-linejoin="round"/>
<path d="M97.6736 114.63V82.2334" stroke="white" stroke-width="4" stroke-miterlimit="10" stroke-linecap="round" stroke-linejoin="round"/>
<path d="M113.872 98.4326H81.4926" stroke="white" stroke-width="4" stroke-miterlimit="10" stroke-linecap="round" stroke-linejoin="round"/>
<path d="M33.8975 22.8505C36.2101 22.8505 38.0849 20.9757 38.0849 18.663C38.0849 16.3504 36.2101 14.4756 33.8975 14.4756C31.5848 14.4756 29.71 16.3504 29.71 18.663C29.71 20.9757 31.5848 22.8505 33.8975 22.8505Z" fill="white"/>
<path d="M33.8975 51.8007C36.2101 51.8007 38.0849 49.9259 38.0849 47.6132C38.0849 45.3006 36.2101 43.4258 33.8975 43.4258C31.5848 43.4258 29.71 45.3006 29.71 47.6132C29.71 49.9259 31.5848 51.8007 33.8975 51.8007Z" fill="white"/>
<path d="M50.0783 33.1387H17.6988" stroke="white" stroke-width="4" stroke-miterlimit="10" stroke-linecap="round" stroke-linejoin="round"/>
<path d="M50.0783 98.4321H17.6988" stroke="white" stroke-width="4" stroke-miterlimit="10" stroke-linecap="round" stroke-linejoin="round"/>
<path d="M109.133 44.5808L86.2314 21.6963" stroke="white" stroke-width="4" stroke-miterlimit="10" stroke-linecap="round" stroke-linejoin="round"/>
<path d="M109.133 21.6963L86.2314 44.5808" stroke="white" stroke-width="4" stroke-miterlimit="10" stroke-linecap="round" stroke-linejoin="round"/>
</svg>
