<svg width="98" height="103" viewBox="0 0 98 103" fill="none" xmlns="http://www.w3.org/2000/svg">
<path d="M40.6865 53.5822L25.6417 68.6269L19.1939 62.1792L12.7462 68.6269L25.6417 81.5225L47.1342 60.0299L40.6865 53.5822Z" stroke="white" stroke-width="3" stroke-miterlimit="10" stroke-linejoin="round"/>
<path d="M72.9254 81.5224V100.866H2V2H72.9254V36.3881" stroke="white" stroke-width="3" stroke-miterlimit="10" stroke-linecap="round" stroke-linejoin="round"/>
<path d="M17.0446 21.3433H55.7312" stroke="white" stroke-width="3" stroke-miterlimit="10" stroke-linecap="round" stroke-linejoin="round"/>
<path d="M17.0446 29.9403H55.7312" stroke="white" stroke-width="3" stroke-miterlimit="10" stroke-linecap="round" stroke-linejoin="round"/>
<path d="M17.0446 38.5372H40.6864" stroke="white" stroke-width="3" stroke-miterlimit="10" stroke-linecap="round" stroke-linejoin="round"/>
<path d="M40.3377 91.64C42.1082 83.9672 45.9983 76.9471 51.5676 71.3806L85.8025 37.1483C87.7986 35.1522 91.0332 35.1522 93.0267 37.1483L94.832 38.9537C96.8282 40.9498 96.8282 44.1845 94.832 46.1779L60.5971 80.4101C55.0305 85.9767 48.0105 89.8695 40.3377 91.64Z" stroke="white" stroke-width="3" stroke-miterlimit="10" stroke-linecap="round" stroke-linejoin="round"/>
<path d="M80.3838 42.5645L91.2214 53.4021C93.2175 55.3982 93.2175 58.6328 91.2214 60.6262L80.3838 71.4639" stroke="white" stroke-width="3" stroke-miterlimit="10" stroke-linecap="round" stroke-linejoin="round"/>
<path d="M60.3305 62.6144L69.3627 71.6439" stroke="white" stroke-width="3" stroke-miterlimit="10" stroke-linecap="round" stroke-linejoin="round"/>
</svg>
