<svg width="81" height="103" viewBox="0 0 81 103" fill="none" xmlns="http://www.w3.org/2000/svg">
<path d="M66.4776 12.7462H75.0746C77.4496 12.7462 79.3732 14.6698 79.3732 17.0447V96.5671C79.3732 98.9421 77.4496 100.866 75.0746 100.866H6.29851C3.92358 100.866 2 98.9421 2 96.5671V17.0447C2 14.6698 3.92358 12.7462 6.29851 12.7462H14.8955" stroke="white" stroke-width="3" stroke-miterlimit="10"/>
<path d="M66.4775 21.3433H70.776V92.2687H10.5969V21.3433H14.8954" stroke="white" stroke-width="3" stroke-miterlimit="10"/>
<path d="M55.7312 10.597H49.2834C49.2834 5.84985 45.4336 2 40.6864 2C35.9392 2 32.0894 5.84985 32.0894 10.597H25.6416C22.0792 10.597 19.1939 13.4824 19.1939 17.0448V23.4925H62.179V17.0448C62.179 13.4824 59.2936 10.597 55.7312 10.597Z" stroke="white" stroke-width="3" stroke-miterlimit="10"/>
<path d="M40.6862 8.44775V12.7463" stroke="white" stroke-width="3" stroke-miterlimit="10"/>
<path d="M21.3431 40.6866L26.813 45.3746L34.2386 36.3881" stroke="white" stroke-width="3" stroke-miterlimit="10" stroke-linecap="round" stroke-linejoin="round"/>
<path d="M21.3431 57.8807L26.813 62.5687L34.2386 53.5822" stroke="white" stroke-width="3" stroke-miterlimit="10" stroke-linecap="round" stroke-linejoin="round"/>
<path d="M21.3431 75.0746L26.813 79.7627L34.2386 70.7761" stroke="white" stroke-width="3" stroke-miterlimit="10" stroke-linecap="round" stroke-linejoin="round"/>
<path d="M44.9855 40.6866H60.0302H44.9855Z" stroke="white" stroke-width="3" stroke-miterlimit="10" stroke-linecap="round" stroke-linejoin="round"/>
<path d="M44.9855 57.8806H60.0302H44.9855Z" stroke="white" stroke-width="3" stroke-miterlimit="10" stroke-linecap="round" stroke-linejoin="round"/>
<path d="M44.9855 75.0746H60.0302H44.9855Z" stroke="white" stroke-width="3" stroke-miterlimit="10" stroke-linecap="round" stroke-linejoin="round"/>
</svg>
