<svg width="129" height="131" viewBox="0 0 129 131" fill="none" xmlns="http://www.w3.org/2000/svg">
<g clip-path="url(#clip0_4_92)">
<path d="M58.3498 91.7345C58.3498 95.0738 55.6541 97.7696 52.3148 97.7696C48.9755 97.7696 46.2275 95.0738 46.2275 91.7345C46.2275 88.3952 48.9755 85.6995 52.3148 85.6995C55.6541 85.6995 58.3498 88.3952 58.3498 91.7345Z" fill="white"/>
<path d="M79.0975 106.257C79.0975 110.587 75.6017 114.083 71.2711 114.083C66.9405 114.083 63.4447 110.587 63.4447 106.257C63.4447 101.909 66.9405 98.4303 71.2711 98.4303C75.6017 98.3781 79.0975 101.909 79.0975 106.257Z" fill="white"/>
<path d="M67.2374 64.8116C67.2374 67.2638 65.2373 69.2465 62.8024 69.2465C60.3502 69.2465 58.3675 67.2465 58.3675 64.8116C58.3675 62.3593 60.3675 60.3766 62.8024 60.3766C65.2373 60.3592 67.2374 62.3593 67.2374 64.8116Z" fill="white"/>
<path d="M81.7942 80.6904C81.7942 83.1427 79.7941 85.1253 77.3592 85.1253C74.9069 85.1253 72.9242 83.1253 72.9242 80.6904C72.9242 78.2381 74.9243 76.2554 77.3592 76.2554C79.7941 76.2554 81.7942 78.2555 81.7942 80.6904Z" fill="white"/>
<path d="M73.8302 1H79.3074C80.2117 1 80.9596 1.71308 80.9596 2.70443C80.9596 3.62621 80.2291 4.35668 79.3074 4.35668H75.8289V7.8351V46.6369C75.8289 48.2717 76.1942 50.0979 76.6985 51.7154C77.2029 53.3329 77.9508 55.0373 78.8899 56.3939L113.135 105.422C114.77 107.788 115.709 110.675 115.709 113.788V113.457C115.709 121.806 108.943 128.571 100.595 128.571H29.1137C20.7655 128.571 14 121.806 14 113.457V113.788C14 110.657 14.9566 107.788 16.574 105.422L50.8191 56.3939C51.7583 55.0373 52.4887 53.3329 53.0105 51.7154C53.5149 50.0979 53.8801 48.2717 53.8801 46.6369V7.85249V4.37407H50.4017C49.4799 4.37407 48.7494 3.6436 48.7494 2.72182C48.7494 1.73047 49.5147 1.01739 50.4017 1.01739H55.8806" stroke="white" stroke-width="4"/>
</g>
<defs>
<clipPath id="clip0_4_92">
<rect width="129" height="131" fill="white"/>
</clipPath>
</defs>
</svg>
